<?xml version="1.0" encoding="UTF-8"?>
<svg version="1.1" xmlns="http://www.w3.org/2000/svg" width="356" height="356">
<path d="M0 0 C0.92345215 0.23106445 1.8469043 0.46212891 2.79833984 0.70019531 C16.45261956 4.20355254 29.41183962 8.64752259 42 15 C42.73911621 15.36963867 43.47823242 15.73927734 44.23974609 16.12011719 C84.40846922 36.51094548 116.26261902 73.22812166 130.97802734 115.83154297 C133.25744778 122.818786 135.21624852 129.87121357 137 137 C137.1949707 137.76231934 137.38994141 138.52463867 137.59082031 139.31005859 C143.00916628 161.67239086 142.69370644 190.73807838 137 213 C136.65340332 214.38517822 136.65340332 214.38517822 136.29980469 215.79833984 C132.79644746 229.45261956 128.35247741 242.41183962 122 255 C121.63036133 255.73911621 121.26072266 256.47823242 120.87988281 257.23974609 C100.48905452 297.40846922 63.77187834 329.26261902 21.16845703 343.97802734 C14.181214 346.25744778 7.12878643 348.21624852 0 350 C-0.76231934 350.1949707 -1.52463867 350.38994141 -2.31005859 350.59082031 C-24.67239086 356.00916628 -53.73807838 355.69370644 -76 350 C-77.38517822 349.65340332 -77.38517822 349.65340332 -78.79833984 349.29980469 C-92.45261956 345.79644746 -105.41183962 341.35247741 -118 335 C-118.73911621 334.63036133 -119.47823242 334.26072266 -120.23974609 333.87988281 C-160.40846922 313.48905452 -192.26261902 276.77187834 -206.97802734 234.16845703 C-209.25744778 227.181214 -211.21624852 220.12878643 -213 213 C-213.1949707 212.23768066 -213.38994141 211.47536133 -213.59082031 210.68994141 C-219.00916628 188.32760914 -218.69370644 159.26192162 -213 137 C-212.76893555 136.07654785 -212.53787109 135.1530957 -212.29980469 134.20166016 C-208.79644746 120.54738044 -204.35247741 107.58816038 -198 95 C-197.63036133 94.26088379 -197.26072266 93.52176758 -196.87988281 92.76025391 C-176.48905452 52.59153078 -139.77187834 20.73738098 -97.16845703 6.02197266 C-90.181214 3.74255222 -83.12878643 1.78375148 -76 0 C-75.23768066 -0.1949707 -74.47536133 -0.38994141 -73.68994141 -0.59082031 C-51.32760914 -6.00916628 -22.26192162 -5.69370644 0 0 Z " fill="#17542A" transform="translate(216,3)"/>
<path d="M0 0 C23.4556838 8.10277384 23.4556838 8.10277384 27.7421875 16.67578125 C29.3921875 16.67578125 31.0421875 16.67578125 32.7421875 16.67578125 C32.86335938 17.32804687 32.98453125 17.9803125 33.109375 18.65234375 C33.27695312 19.52632812 33.44453125 20.4003125 33.6171875 21.30078125 C33.77960938 22.15929687 33.94203125 23.0178125 34.109375 23.90234375 C34.68873348 26.72012243 34.68873348 26.72012243 35.7890625 29.49609375 C38.32394228 37.95261891 38.06560343 49.39701869 34.1953125 57.41015625 C24.05554548 73.21947042 8.11300504 81.74236638 -9.47265625 86.78515625 C-15.09991993 88.58461785 -19.12380035 91.59652018 -22.2578125 96.67578125 C-25.70701146 105.57952739 -26.31895254 115.25404538 -27.2578125 124.67578125 C-26.5565625 124.64097656 -25.8553125 124.60617188 -25.1328125 124.5703125 C-18.3681858 124.37730005 -12.07480786 124.37485925 -6.7265625 129 C-1.41999568 134.87733128 -0.80531559 140.9641735 -0.9375 148.57421875 C-1.82045593 157.12381643 -6.16673871 164.9486462 -12.3828125 170.80078125 C-19.06245897 176.20134648 -26.40493786 178.45062221 -34.96484375 178.13671875 C-37.2578125 177.67578125 -37.2578125 177.67578125 -39.3828125 175.36328125 C-39.8159375 174.03296875 -39.8159375 174.03296875 -40.2578125 172.67578125 C-40.5878125 171.68578125 -40.9178125 170.69578125 -41.2578125 169.67578125 C-41.3268035 167.61433018 -41.34248977 165.55076724 -41.3203125 163.48828125 C-41.31128906 162.40160156 -41.30226562 161.31492188 -41.29296875 160.1953125 C-41.27556641 158.94814453 -41.27556641 158.94814453 -41.2578125 157.67578125 C-43.8978125 158.00578125 -46.5378125 158.33578125 -49.2578125 158.67578125 C-49.22300781 159.42601562 -49.18820313 160.17625 -49.15234375 160.94921875 C-48.87454908 171.45250286 -50.66519485 180.27456938 -57.2578125 188.67578125 C-63.72386098 194.66870423 -68.99158327 195.14058293 -77.6171875 194.9140625 C-83.65808102 194.51868213 -87.23385842 193.17817058 -91.3828125 188.61328125 C-96.26955344 181.63035117 -98.17123533 171.86167717 -99.6315918 163.54785156 C-100.17469474 161.28839378 -100.17469474 161.28839378 -103.2578125 159.67578125 C-103.35578125 160.58199219 -103.45375 161.48820313 -103.5546875 162.421875 C-104.95344451 173.81692135 -107.34677884 182.89688711 -116.2578125 190.67578125 C-121.96141105 194.27678203 -128.70760951 194.52558893 -135.2578125 193.67578125 C-140.84602018 191.99931895 -145.392148 188.84621506 -148.2578125 183.67578125 C-152.2578125 173.77414191 -152.2578125 173.77414191 -152.2578125 168.67578125 C-152.9178125 168.67578125 -153.5778125 168.67578125 -154.2578125 168.67578125 C-154.4434375 169.37703125 -154.6290625 170.07828125 -154.8203125 170.80078125 C-157.18036198 175.52088021 -161.08736497 178.38524488 -165.5703125 181.05078125 C-170.12314113 182.10957861 -175.98159398 182.81389051 -180.2578125 180.67578125 C-180.01804687 181.49949219 -180.01804687 181.49949219 -179.7734375 182.33984375 C-178.51887954 188.02337148 -178.53912171 193.81371876 -180.6328125 199.23828125 C-182.2578125 201.67578125 -182.2578125 201.67578125 -184.2578125 203.67578125 C-189.67707984 203.55261608 -192.45700256 201.39020915 -196.2578125 197.67578125 C-198.6176641 194.05407553 -198.95736272 190.03679066 -199.51171875 185.83984375 C-199.61749741 185.08287201 -199.72327606 184.32590027 -199.83226013 183.54598999 C-200.16823261 181.13178135 -200.49452408 178.7163832 -200.8203125 176.30078125 C-201.15182752 173.89265615 -201.48530085 171.48480853 -201.81907654 169.07699585 C-202.02566705 167.58133096 -202.23056259 166.08543063 -202.43348694 164.58926392 C-202.85173261 161.51693741 -203.29567633 158.45864343 -203.82836914 155.40380859 C-204.28167126 152.52421915 -204.27404229 149.77716133 -204.19189453 146.86816406 C-203.53643562 122.54576305 -210.29359806 100.15438618 -217.4453125 77.17578125 C-227.7198177 44.08826943 -227.7198177 44.08826943 -221.9453125 32.05078125 C-220.33263827 29.13537618 -218.62359619 26.99594377 -216.2578125 24.67578125 C-215.8040625 23.80953125 -215.3503125 22.94328125 -214.8828125 22.05078125 C-212.79059307 18.99292208 -211.79649635 19.35629737 -208.2578125 18.67578125 C-206.39996952 17.78784159 -204.56769462 16.84529147 -202.7578125 15.86328125 C-188.11998648 8.38292163 -173.02568547 6.32060582 -156.7578125 6.36328125 C-155.52933594 6.34716797 -154.30085938 6.33105469 -153.03515625 6.31445312 C-142.02386007 6.30861469 -132.41250793 8.12767292 -122.6328125 13.23828125 C-121.46492188 13.83769531 -120.29703125 14.43710938 -119.09375 15.0546875 C-116.2578125 16.67578125 -116.2578125 16.67578125 -114.2578125 18.67578125 C-112.9378125 18.01578125 -111.6178125 17.35578125 -110.2578125 16.67578125 C-107.88089125 19.0527025 -108.03336116 19.82053853 -107.6953125 23.05078125 C-107.30956388 25.50297409 -107.30956388 25.50297409 -106.2578125 27.67578125 C-104.03908593 29.14493803 -101.98474881 29.93708115 -99.44921875 30.7265625 C-96.54207967 31.98580456 -95.67680544 32.81519995 -94.2578125 35.67578125 C-93.90436445 38.76967244 -93.97559634 41.81714837 -94.0703125 44.92578125 C-94.08384766 45.76625 -94.09738281 46.60671875 -94.11132812 47.47265625 C-94.14657786 49.54064063 -94.2003823 51.60829396 -94.2578125 53.67578125 C-96.2378125 53.18078125 -96.2378125 53.18078125 -98.2578125 52.67578125 C-98.31388672 50.97808594 -98.31388672 50.97808594 -98.37109375 49.24609375 C-98.43674332 47.7642892 -98.50319101 46.28251986 -98.5703125 44.80078125 C-98.59287109 44.05441406 -98.61542969 43.30804688 -98.63867188 42.5390625 C-98.73593195 40.57617725 -98.98823544 38.62249803 -99.2578125 36.67578125 C-100.7428125 35.68578125 -100.7428125 35.68578125 -102.2578125 34.67578125 C-102.04125 35.17722656 -101.8246875 35.67867187 -101.6015625 36.1953125 C-95.92207247 51.62985253 -99.20215718 66.97591327 -105.2578125 81.67578125 C-105.67289062 82.41957031 -106.08796875 83.16335937 -106.515625 83.9296875 C-107.41839457 85.67801548 -107.41839457 85.67801548 -107.08984375 87.73828125 C-106.07101992 90.11075365 -104.9637075 91.07109454 -102.9453125 92.67578125 C-91.54362417 102.30296711 -78.99048046 114.0452217 -74.2578125 128.67578125 C-74.2578125 129.66578125 -74.2578125 130.65578125 -74.2578125 131.67578125 C-71.9478125 131.67578125 -69.6378125 131.67578125 -67.2578125 131.67578125 C-67.28101563 130.62003906 -67.30421875 129.56429687 -67.328125 128.4765625 C-67.4630048 119.50139308 -67.11577669 110.71431804 -66.17358398 101.78930664 C-65.57188657 96.04968927 -65.0597631 90.30989842 -64.6328125 84.5546875 C-63.43147225 68.44153476 -62.04421216 52.35737105 -60.19107056 36.30456543 C-59.98823451 34.53368088 -59.79127347 32.76211186 -59.60067749 30.98986816 C-57.03411255 7.33538574 -57.03411255 7.33538574 -50.12939453 0.59936523 C-37.21300491 -9.50678311 -14.68618728 -4.7443033 0 0 Z " fill="#EEE6CB" transform="translate(247.2578125,71.32421875)"/>
<path d="M0 0 C23.4556838 8.10277384 23.4556838 8.10277384 27.7421875 16.67578125 C29.3921875 16.67578125 31.0421875 16.67578125 32.7421875 16.67578125 C32.86335938 17.32804687 32.98453125 17.9803125 33.109375 18.65234375 C33.27695312 19.52632812 33.44453125 20.4003125 33.6171875 21.30078125 C33.77960938 22.15929687 33.94203125 23.0178125 34.109375 23.90234375 C34.68873348 26.72012243 34.68873348 26.72012243 35.7890625 29.49609375 C38.32394228 37.95261891 38.06560343 49.39701869 34.1953125 57.41015625 C24.05554548 73.21947042 8.11300504 81.74236638 -9.47265625 86.78515625 C-15.09991993 88.58461785 -19.12380035 91.59652018 -22.2578125 96.67578125 C-25.70701146 105.57952739 -26.31895254 115.25404538 -27.2578125 124.67578125 C-26.5565625 124.64097656 -25.8553125 124.60617188 -25.1328125 124.5703125 C-18.3681858 124.37730005 -12.07480786 124.37485925 -6.7265625 129 C-1.41999568 134.87733128 -0.80531559 140.9641735 -0.9375 148.57421875 C-1.82045593 157.12381643 -6.16673871 164.9486462 -12.3828125 170.80078125 C-19.06245897 176.20134648 -26.40493786 178.45062221 -34.96484375 178.13671875 C-37.2578125 177.67578125 -37.2578125 177.67578125 -39.3828125 175.36328125 C-39.8159375 174.03296875 -39.8159375 174.03296875 -40.2578125 172.67578125 C-40.5878125 171.68578125 -40.9178125 170.69578125 -41.2578125 169.67578125 C-41.3268035 167.61433018 -41.34248977 165.55076724 -41.3203125 163.48828125 C-41.31128906 162.40160156 -41.30226562 161.31492188 -41.29296875 160.1953125 C-41.28136719 159.36386719 -41.26976562 158.53242188 -41.2578125 157.67578125 C-44.2278125 157.67578125 -47.1978125 157.67578125 -50.2578125 157.67578125 C-50.34417969 156.90234375 -50.43054688 156.12890625 -50.51953125 155.33203125 C-51.66972267 146.80584165 -53.36831144 140.69212901 -60.3203125 135.30078125 C-62.61228707 134.03288043 -64.91140032 132.83637222 -67.2578125 131.67578125 C-67.47859878 121.6300055 -67.2286626 111.78364069 -66.17358398 101.78930664 C-65.57188657 96.04968927 -65.0597631 90.30989842 -64.6328125 84.5546875 C-63.43147225 68.44153476 -62.04421216 52.35737105 -60.19107056 36.30456543 C-59.98823451 34.53368088 -59.79127347 32.76211186 -59.60067749 30.98986816 C-57.03411255 7.33538574 -57.03411255 7.33538574 -50.12939453 0.59936523 C-37.21300491 -9.50678311 -14.68618728 -4.7443033 0 0 Z " fill="#EEE7CB" transform="translate(247.2578125,71.32421875)"/>
<path d="M0 0 C1.875 1.875 1.875 1.875 1.9921875 4.9921875 C1.95351563 5.94351563 1.91484375 6.89484375 1.875 7.875 C1.10414063 8.27332031 0.33328125 8.67164063 -0.4609375 9.08203125 C-1.46382813 9.61183594 -2.46671875 10.14164063 -3.5 10.6875 C-4.49773437 11.20957031 -5.49546875 11.73164063 -6.5234375 12.26953125 C-9.35376117 13.76664684 -9.35376117 13.76664684 -11.125 16.875 C-12.12866792 20.15738562 -12.12866792 20.15738562 -11.125 23.875 C-7.60925684 27.44785812 -3.62255931 30.62622035 0.875 32.875 C1.1328125 32.27816406 1.390625 31.68132812 1.65625 31.06640625 C2.98725285 28.67316074 4.2131334 27.47377044 6.375 25.8125 C7.28765625 25.08353516 7.28765625 25.08353516 8.21875 24.33984375 C17.97262056 18.96087101 28.3634183 19.36582293 39.1875 19.25 C42.41287092 19.20110637 45.63807341 19.14453331 48.86328125 19.0859375 C50.02236496 19.0666922 50.02236496 19.0666922 51.2048645 19.04705811 C57.78888739 18.92017059 64.31725971 18.49145834 70.875 17.875 C69.78885914 35.9773477 59.44809944 52.99299365 46.5 65.1875 C35.08128908 74.94961037 22.8080839 76.86268329 8.28662109 76.10009766 C-3.22709184 75.02542228 -13.86571582 67.38183528 -23.125 60.875 C-23.455 60.215 -23.785 59.555 -24.125 58.875 C-20.29577327 60.11691137 -16.5212132 61.46931831 -12.75 62.875 C2.4668385 68.34163903 16.11597264 68.61210066 30.875 61.875 C39.7713849 56.85919966 46.28906995 49.51824571 52.875 41.875 C52.15957031 42.4525 51.44414062 43.03 50.70703125 43.625 C35.591365 55.63413622 22.69725077 62.22752494 2.875 60.875 C-1.15989816 60.35622738 -5.140276 59.69237928 -9.125 58.875 C-9.125 58.215 -9.125 57.555 -9.125 56.875 C-9.88683594 56.92140625 -10.64867187 56.9678125 -11.43359375 57.015625 C-18.23210076 57.25327568 -24.53181298 57.20180506 -30.125 52.875 C-31.3125 49.75 -31.3125 49.75 -31.125 46.875 C-29.125 44.875 -29.125 44.875 -25.6484375 44.6796875 C-24.26549032 44.69298507 -22.88261346 44.71683768 -21.5 44.75 C-20.79359375 44.75902344 -20.0871875 44.76804688 -19.359375 44.77734375 C-17.61443902 44.80092397 -15.86967705 44.83679539 -14.125 44.875 C-13.72768248 42.52289174 -13.72768248 42.52289174 -14.125 39.875 C-16.17296044 37.91750346 -16.17296044 37.91750346 -18.875 36.375 C-23.76057936 33.19626379 -27.23228501 30.55314496 -29.125 24.875 C-29.86498923 18.33138095 -29.67697734 13.10610282 -25.7578125 7.6640625 C-18.7425108 -0.02255993 -10.18563125 -3.66682725 0 0 Z " fill="#20AE71" transform="translate(277.125,192.125)"/>
<path d="M0 0 C1.00508801 1.78881736 2.00392736 3.58114696 3 5.375 C3.556875 6.37273437 4.11375 7.37046875 4.6875 8.3984375 C6 11 6 11 6 13 C6.969375 12.896875 7.93875 12.79375 8.9375 12.6875 C14.09101815 12.72922889 17.99867471 14.87169114 22 18 C30.65999527 27.69182449 30.61029596 38.70507937 30 51 C29.62845934 53.96768104 29.00702593 56.12997611 28 59 C27.75507813 59.73476562 27.51015625 60.46953125 27.2578125 61.2265625 C24.54791746 68.39699274 19.99235928 72.95946081 13.1875 76.4375 C5.95810005 77.71327646 -0.8033313 78.08068147 -7.2890625 74.2421875 C-13.984444 69.38115709 -15.9872008 62.79256897 -18 55 C-18 54.01 -18 53.02 -18 52 C-18.66 51.67 -19.32 51.34 -20 51 C-20.05425013 48.12474331 -20.09379277 45.25052354 -20.125 42.375 C-20.14175781 41.56675781 -20.15851563 40.75851563 -20.17578125 39.92578125 C-20.20561321 36.25644966 -20.15398602 33.44108816 -18.93359375 29.9453125 C-17.84353582 26.50638496 -18.15566069 24.24574951 -18.63891602 20.73120117 C-19.90580191 11.26425907 -19.90580191 11.26425907 -17.3515625 7.69921875 C-14.96105912 6.12050747 -12.66484765 5.04400281 -10 4 C-8.51684453 3.21583165 -7.03730764 2.42475782 -5.5625 1.625 C-2 0 -2 0 0 0 Z " fill="#FB66C1" transform="translate(113,188)"/>
<path d="M0 0 C4.92642113 3.77965327 7.76148519 8.4143652 9.64453125 14.26171875 C9.8664787 17.28213405 9.82950665 20.24045385 9.64453125 23.26171875 C11.62453125 23.26171875 13.60453125 23.26171875 15.64453125 23.26171875 C15.64453125 23.59171875 15.64453125 23.92171875 15.64453125 24.26171875 C13.99453125 24.26171875 12.34453125 24.26171875 10.64453125 24.26171875 C10.67933594 25.01195312 10.71414062 25.7621875 10.75 26.53515625 C11.02779467 37.03844036 9.2371489 45.86050688 2.64453125 54.26171875 C-3.82151723 60.25464173 -9.08923952 60.72652043 -17.71484375 60.5 C-23.75573727 60.10461963 -27.33151467 58.76410808 -31.48046875 54.19921875 C-38.74843222 43.60987413 -41.09055004 28.15014661 -38.9140625 15.74609375 C-37.08157466 8.96934625 -33.09595886 3.59541645 -27.1328125 -0.125 C-18.73758711 -4.0154703 -8.14882489 -4.88929494 0 0 Z " fill="#FB66C1" transform="translate(187.35546875,205.73828125)"/>
<path d="M0 0 C1.83908528 3.13726312 1.76250338 6.35448328 1.0625 9.8125 C-2.84087107 14.97052606 -9.93628065 15.53193678 -15.9375 16.8125 C-17.68752518 17.20822199 -19.43752838 17.60404123 -21.1875 18 C-22.425 18.268125 -23.6625 18.53625 -24.9375 18.8125 C-24.9375 20.4625 -24.9375 22.1125 -24.9375 23.8125 C-24.05707031 23.83828125 -23.17664063 23.8640625 -22.26953125 23.890625 C-21.10808594 23.94734375 -19.94664063 24.0040625 -18.75 24.0625 C-17.02716797 24.13210937 -17.02716797 24.13210937 -15.26953125 24.203125 C-11.36024973 24.9180698 -9.63566192 25.91410343 -6.9375 28.8125 C-5.8279071 33.30197127 -6.41324053 37.61419263 -8.25 41.8125 C-9.9375 43.8125 -9.9375 43.8125 -12.9375 45.8125 C-15.26949388 45.89155064 -17.60582622 45.90048769 -19.9375 45.8125 C-19.77765625 46.52535156 -19.6178125 47.23820312 -19.453125 47.97265625 C-18.18521731 54.95575392 -17.88178933 61.728934 -21.9375 67.8125 C-22.9275 68.8025 -22.9275 68.8025 -23.9375 69.8125 C-29.35676734 69.68933483 -32.13669006 67.5269279 -35.9375 63.8125 C-38.2973516 60.19079428 -38.63705022 56.17350941 -39.19140625 51.9765625 C-39.29718491 51.21959076 -39.40296356 50.46261902 -39.51194763 49.68270874 C-39.84792011 47.2685001 -40.17421158 44.85310195 -40.5 42.4375 C-40.83151502 40.0293749 -41.16498835 37.62152728 -41.49876404 35.2137146 C-41.70535455 33.71804971 -41.91025009 32.22214938 -42.11317444 30.72598267 C-42.53191445 27.65002488 -42.9757926 24.58472243 -43.49047852 21.52319336 C-44.57275367 14.9603856 -45.42195787 7.61647597 -42.25 1.625 C-37.10271893 -1.19143681 -31.67089794 -2.13732315 -25.9375 -3.1875 C-25.09960938 -3.373125 -24.26171875 -3.55875 -23.3984375 -3.75 C-14.67525463 -5.30078807 -7.5250536 -4.61212963 0 0 Z " fill="#FC67C2" transform="translate(86.9375,205.1875)"/>
<path d="M0 0 C1.1451709 0.00845947 1.1451709 0.00845947 2.31347656 0.01708984 C8.36085382 0.14787894 13.4828541 0.4431672 18.2578125 4.63671875 C23.61308958 10.46632037 24.20218151 16.61905047 24.0703125 24.2109375 C23.18735657 32.76053518 18.84107379 40.58536495 12.625 46.4375 C5.94535353 51.83806523 -1.39712536 54.08734096 -9.95703125 53.7734375 C-12.25 53.3125 -12.25 53.3125 -14.375 51 C-14.66375 50.113125 -14.9525 49.22625 -15.25 48.3125 C-15.745 46.8275 -15.745 46.8275 -16.25 45.3125 C-17.58925941 36.71147844 -17.30067663 27.98287753 -17.0625 19.3125 C-17.04461426 18.21405762 -17.02672852 17.11561523 -17.00830078 15.98388672 C-16.72691543 8.14011896 -16.72691543 8.14011896 -14.44921875 4.1875 C-9.7963422 0.2205715 -6.0364514 -0.04567138 0 0 Z " fill="#FB66C1" transform="translate(222.25,195.6875)"/>
<path d="M0 0 C1.875 1.875 1.875 1.875 1.9921875 4.9921875 C1.95351563 5.94351563 1.91484375 6.89484375 1.875 7.875 C1.10414063 8.27332031 0.33328125 8.67164063 -0.4609375 9.08203125 C-1.46382813 9.61183594 -2.46671875 10.14164063 -3.5 10.6875 C-4.49773437 11.20957031 -5.49546875 11.73164063 -6.5234375 12.26953125 C-9.35376117 13.76664684 -9.35376117 13.76664684 -11.125 16.875 C-12.12866792 20.15738562 -12.12866792 20.15738562 -11.125 23.875 C-8.76660728 26.15550085 -6.29752207 28.01041755 -3.60546875 29.8828125 C-0.13618891 32.66916324 1.59460322 35.13957128 2.30859375 39.55859375 C2.31490435 44.00757022 2.14594387 47.24279764 0.375 51.375 C-4.26432903 56.01432903 -9.11043687 57.03236841 -15.5625 57.3125 C-20.92312138 57.14054143 -25.77795143 56.16791439 -30.125 52.875 C-31.3125 49.75 -31.3125 49.75 -31.125 46.875 C-29.125 44.875 -29.125 44.875 -25.6484375 44.6796875 C-24.26549032 44.69298507 -22.88261346 44.71683768 -21.5 44.75 C-20.79359375 44.75902344 -20.0871875 44.76804688 -19.359375 44.77734375 C-17.61443902 44.80092397 -15.86967705 44.83679539 -14.125 44.875 C-13.72768248 42.52289174 -13.72768248 42.52289174 -14.125 39.875 C-16.17296044 37.91750346 -16.17296044 37.91750346 -18.875 36.375 C-23.76057936 33.19626379 -27.23228501 30.55314496 -29.125 24.875 C-29.86498923 18.33138095 -29.67697734 13.10610282 -25.7578125 7.6640625 C-18.7425108 -0.02255993 -10.18563125 -3.66682725 0 0 Z " fill="#F965C0" transform="translate(277.125,192.125)"/>
<path d="M0 0 C1.12160522 0.00809692 1.12160522 0.00809692 2.26586914 0.01635742 C7.96318632 0.17387258 11.84259698 1.0661407 16.5625 4.4375 C19.30523855 8.55160783 19.38488445 11.60786038 18.5625 16.4375 C14.10753109 27.48722604 4.16316716 35.84039351 -5.4375 42.4375 C-11.95267392 34.37497227 -19.24129079 21.69171027 -19.875 11.1875 C-19.4375 7.4375 -19.4375 7.4375 -17.875 5.125 C-12.03143052 1.0794519 -6.97117351 -0.09594431 0 0 Z " fill="#19552B" transform="translate(87.4375,124.5625)"/>
<path d="M0 0 C6.140625 0.34114583 6.140625 0.34114583 8.875 2.4375 C11.2403467 4.17672552 12.64318297 4.38645637 15.5 4.875 C18.7539782 5.5397336 19.9238726 5.93686996 22.5625 8.125 C24.41491251 11.82982502 24.78612475 14.98290252 24 19 C21.80963135 23.2242824 20.12959117 24.93520442 16 27 C15.71125 27.763125 15.4225 28.52625 15.125 29.3125 C13.25959527 33.76874463 9.69352494 36.11089941 5.5 38.3125 C1.84728029 39.31699792 -1.54844992 39.72577504 -5 38 C-5.63059754 27.01709281 -5.63059754 27.01709281 -3.0625 22.875 C-2.381875 22.25625 -1.70125 21.6375 -1 21 C0.5863587 17.82728259 0.4207826 14.45593575 0 11 C-0.96873032 9.64377755 -1.96434215 8.30582947 -3 7 C-2.75925978 3.62963689 -2.41201979 2.41201979 0 0 Z " fill="#FA67C1" transform="translate(233,97)"/>
<path d="M0 0 C3.03353995 2.86897178 3.93750893 4.53303918 4.49609375 8.70703125 C4.50205794 10.07564721 4.48163152 11.44458274 4.4375 12.8125 C4.42428711 13.52301514 4.41107422 14.23353027 4.39746094 14.96557617 C4.1804131 21.27226294 3.48650494 26.26484457 -0.875 31.0625 C-3 32 -3 32 -5.5 32 C-9.34493405 30.46202638 -11.18490024 27.63019953 -13 24 C-13.1501182 21.58656122 -13.2215537 19.1679357 -13.25 16.75 C-13.27578125 15.44546875 -13.3015625 14.1409375 -13.328125 12.796875 C-12.91122426 7.97273783 -11.56152876 4.61537458 -8.1875 1.125 C-5.17738215 -0.42306061 -3.33776361 -0.55629393 0 0 Z " fill="#1B542C" transform="translate(124,220)"/>
<path d="M0 0 C2.81644194 2.72019662 3.91016517 4.36278177 4.4609375 8.26953125 C4.11459671 22.54821745 4.11459671 22.54821745 0.8125 29.5 C-1 31 -1 31 -4.4375 31.5625 C-8 31 -8 31 -10.375 28.625 C-14.27176255 22.33022973 -13.65510462 15.20615085 -13 8 C-10.46759424 1.76347836 -6.68601292 -0.80232155 0 0 Z " fill="#1A542C" transform="translate(179,222)"/>
<path d="M0 0 C4.45858866 0.87423307 7.20792465 3.25143122 10.1875 6.625 C11.5953537 10.8485611 11.19333007 14.71445291 11 19.125 C10.98130859 19.99253906 10.96261719 20.86007813 10.94335938 21.75390625 C10.66719108 28.02341095 10.66719108 28.02341095 8.52734375 30.70703125 C5.52715599 31.88406651 3.15326399 31.91736187 -0.0625 31.8125 C-1.67898437 31.77189453 -1.67898437 31.77189453 -3.328125 31.73046875 C-4.14796875 31.69566406 -4.9678125 31.66085938 -5.8125 31.625 C-5.8125 30.965 -5.8125 30.305 -5.8125 29.625 C-6.4725 29.625 -7.1325 29.625 -7.8125 29.625 C-9.38705739 26.47588521 -9.16049118 24.10491184 -8.8125 20.625 C-5.58305502 15.63403958 -2.11277699 13.22513588 3.1875 10.625 C3.8475 10.625 4.5075 10.625 5.1875 10.625 C4.1975 9.305 3.2075 7.985 2.1875 6.625 C-0.67974686 7.19844937 -1.6739515 7.4864515 -3.8125 9.625 C-4.8025 9.625 -5.7925 9.625 -6.8125 9.625 C-7.17132213 6.39560081 -7.08508004 5.01290237 -5.1875 2.3125 C-2.8125 0.625 -2.8125 0.625 0 0 Z " fill="#FC6BC3" transform="translate(87.8125,93.375)"/>
<path d="M0 0 C0.99 0 1.98 0 3 0 C3.02934144 3.97915085 3.04691265 7.95827337 3.0625 11.9375 C3.07087891 13.05447266 3.07925781 14.17144531 3.08789062 15.32226562 C3.10637027 21.62382413 3.07695104 27.78044842 2 34 C-1.18737948 36.50436959 -3.51562593 36.9308037 -7.5 37.5 C-12.10176735 36.84260466 -13.91815369 35.44873278 -17 32 C-18.125 28.5625 -18.125 28.5625 -18 25 C-16.02139532 21.18935395 -13.90980756 17.90206854 -10 16 C-6.98236972 15.76465622 -4.01961234 15.8257916 -1 16 C-1.01160156 14.92878906 -1.02320313 13.85757813 -1.03515625 12.75390625 C-1.04453299 11.35677257 -1.05363331 9.95963701 -1.0625 8.5625 C-1.07087891 7.85544922 -1.07925781 7.14839844 -1.08789062 6.41992188 C-1.09653588 4.61306441 -1.05220011 2.80612397 -1 1 C-0.67 0.67 -0.34 0.34 0 0 Z " fill="#FE69C4" transform="translate(277,88)"/>
<path d="M0 0 C0.99 0.33 1.98 0.66 3 1 C3 5.62 3 10.24 3 15 C6.96 15 10.92 15 15 15 C15 10.38 15 5.76 15 1 C16.32 0.67 17.64 0.34 19 0 C21.25901569 2.25901569 20.47998484 7.39191061 20.625 10.4375 C20.67003662 11.34661133 20.71507324 12.25572266 20.76147461 13.19238281 C21.02215784 19.24283509 20.90038349 24.99744341 20 31 C18.35 31.33 16.7 31.66 15 32 C15 28.04 15 24.08 15 20 C11.04 20 7.08 20 3 20 C2.855625 21.93875 2.71125 23.8775 2.5625 25.875 C2.125 31.75 2.125 31.75 1 34 C-0.32 33.67 -1.64 33.34 -3 33 C-2.9065465 28.6213617 -2.80047246 24.24326804 -2.68261719 19.86523438 C-2.64430002 18.37541111 -2.60945192 16.88549446 -2.578125 15.39550781 C-2.53253271 13.25551952 -2.47453126 11.11617564 -2.4140625 8.9765625 C-2.3826416 7.68830566 -2.3512207 6.40004883 -2.31884766 5.07275391 C-2 2 -2 2 0 0 Z " fill="#FD6AC3" transform="translate(34,91)"/>
<path d="M0 0 C3.5386994 1.65139305 4.81070153 2.71605229 7 6 C7.47128944 10.79144265 7.51298393 13.0289947 5.25 17.3125 C2.04803943 21.13706401 0.59318478 22.76826403 -4.4375 23.5 C-8.89006919 22.87507801 -10.21710264 21.43769674 -13 18 C-14.55944339 14.88111322 -14.28316275 12.4545855 -14 9 C-11.11817652 1.89530646 -7.71207705 -0.66483423 0 0 Z " fill="#FD68C3" transform="translate(227,102)"/>
<path d="M0 0 C4.50645731 0.25035874 7.74370195 0.74370195 11 4 C11 4.66 11 5.32 11 6 C10.1028125 6.309375 10.1028125 6.309375 9.1875 6.625 C6.0380033 8.60468364 5.28478614 10.53107742 4 14 C3.46255003 16.98518406 3.60342591 18.87697907 4 22 C6.5525195 25.52848284 8.07461574 26.77301895 12.3125 27.8125 C13.199375 27.874375 14.08625 27.93625 15 28 C14.75006984 31.37405722 13.76721161 32.2222071 11.25 34.625 C6.64512777 38.18829399 2.87126246 39.3914175 -3 39 C-3.66 38.67 -4.32 38.34 -5 38 C-5.63059754 27.01709281 -5.63059754 27.01709281 -3.0625 22.875 C-2.381875 22.25625 -1.70125 21.6375 -1 21 C0.5863587 17.82728259 0.4207826 14.45593575 0 11 C-0.96873032 9.64377755 -1.96434215 8.30582947 -3 7 C-2.75925978 3.62963689 -2.41201979 2.41201979 0 0 Z " fill="#1E572F" transform="translate(233,97)"/>
<path d="M0 0 C2.19510386 2.1800345 2.94186908 3.48844786 3.29296875 6.578125 C3.25816406 7.45984375 3.22335938 8.3415625 3.1875 9.25 C3.16042969 10.14203125 3.13335937 11.0340625 3.10546875 11.953125 C3.07066406 12.62859375 3.03585938 13.3040625 3 14 C-1.17737474 15.59138085 -4.53160785 16.21278058 -9 16 C-8.34 18.64 -7.68 21.28 -7 24 C-5.63875 23.319375 -5.63875 23.319375 -4.25 22.625 C-1.83333333 21.41666667 0.58333333 20.20833333 3 19 C3.33 20.32 3.66 21.64 4 23 C0.60634129 26.55869986 -1.66766493 28.8645083 -6.6875 29.375 C-10.09901151 27.95890088 -10.68941573 27.58471611 -12.4375 24.5625 C-14.73399462 19.00518186 -15.15516142 13.38096027 -13.19921875 7.65625 C-10.2235242 1.31422918 -7.31284444 -0.78351905 0 0 Z " fill="#FE6BC4" transform="translate(72,96)"/>
<path d="M0 0 C1.95703125 0.7265625 1.95703125 0.7265625 4 2 C4.51171875 4.0234375 4.51171875 4.0234375 4.6875 6.375 C5.02035067 8.82135579 5.02035067 8.82135579 6 11 C8.21684679 12.47360164 10.2724148 13.26109785 12.80859375 14.05078125 C15.71573283 15.31002331 16.58100706 16.1394187 18 19 C18.35344805 22.09389119 18.28221616 25.14136712 18.1875 28.25 C18.16719727 29.51070312 18.16719727 29.51070312 18.14648438 30.796875 C18.11123464 32.86485938 18.0574302 34.93251271 18 37 C16.68 36.67 15.36 36.34 14 36 C13.67 30.72 13.34 25.44 13 20 C11.68 19.67 10.36 19.34 9 19 C9 18.34 9 17.68 9 17 C6.88026703 17.94851888 6.88026703 17.94851888 5 20 C4.54281872 22.84566041 4.30478554 25.33616173 4.25 28.1875 C4.22035156 28.93708984 4.19070312 29.68667969 4.16015625 30.45898438 C4.0895921 32.30541307 4.04251524 34.15271261 4 36 C2.68 35.67 1.36 35.34 0 35 C-0.83663148 27.27211693 -1.15504077 19.64554609 -1.125 11.875 C-1.12886719 10.83601563 -1.13273438 9.79703125 -1.13671875 8.7265625 C-1.13542969 7.74171875 -1.13414062 6.756875 -1.1328125 5.7421875 C-1.13168457 4.8538623 -1.13055664 3.96553711 -1.12939453 3.05029297 C-1 1 -1 1 0 0 Z " fill="#F86CC0" transform="translate(135,88)"/>
<path d="M0 0 C1.00508801 1.78881736 2.00392736 3.58114696 3 5.375 C3.556875 6.37273437 4.11375 7.37046875 4.6875 8.3984375 C6 11 6 11 6 13 C5.38253906 13.07476562 4.76507813 13.14953125 4.12890625 13.2265625 C-4.5485066 14.57374075 -11.15403262 18.39151514 -17 25 C-17.74339107 22.01316089 -18.39067929 19.01688057 -19 16 C-19.3403125 14.4221875 -19.3403125 14.4221875 -19.6875 12.8125 C-18.83659276 9.33151584 -17.89491025 8.87303616 -15 6.875 C-3.54769737 0 -3.54769737 0 0 0 Z " fill="#1D572E" transform="translate(113,188)"/>
<path d="M0 0 C3.05081496 0.31723076 3.90666113 0.88901781 5.921875 3.28515625 C6.52515625 4.20167969 7.1284375 5.11820312 7.75 6.0625 C8.36359375 6.98160156 8.9771875 7.90070313 9.609375 8.84765625 C10.06828125 9.55792969 10.5271875 10.26820312 11 11 C12.32 7.37 13.64 3.74 15 0 C16.32 0 17.64 0 19 0 C18.71736122 11.38263463 15.22286675 21.95986362 7 30 C3.78548731 31.60725635 0.56387464 31.05748185 -3 31 C-3.33 29.35 -3.66 27.7 -4 26 C-2.7625 25.938125 -1.525 25.87625 -0.25 25.8125 C3.10455919 25.38945612 3.89756616 25.08994191 6.5625 22.75 C8.31156928 19.40395441 8.07641315 18.5449183 7 15 C5.28961671 12.1083448 3.40240178 9.38658287 1.49609375 6.62109375 C0 4 0 4 0 0 Z " fill="#F265BB" transform="translate(159,105)"/>
<path d="M0 0 C1.04671875 -0.01417969 2.0934375 -0.02835937 3.171875 -0.04296875 C6.27080677 0.18905787 8.45276014 0.87694133 11.25 2.1875 C10.92 3.5075 10.59 4.8275 10.25 6.1875 C6.62 5.8575 2.99 5.5275 -0.75 5.1875 C-0.75 7.1675 -0.75 9.1475 -0.75 11.1875 C1.56 11.8475 3.87 12.5075 6.25 13.1875 C5.92 14.1775 5.59 15.1675 5.25 16.1875 C3.27 16.1875 1.29 16.1875 -0.75 16.1875 C-0.42 21.1375 -0.09 26.0875 0.25 31.1875 C-1.07 31.5175 -2.39 31.8475 -3.75 32.1875 C-6.53254707 29.40495293 -6.07637727 27.57863785 -6.19921875 23.68359375 C-6.26399414 21.73743164 -6.26399414 21.73743164 -6.33007812 19.75195312 C-6.34756104 19.07527588 -6.36504395 18.39859863 -6.38305664 17.70141602 C-6.43738979 15.62920334 -6.50753974 13.55797526 -6.58007812 11.48632812 C-6.8057261 4.04734319 -6.8057261 4.04734319 -6.75 1.1875 C-4.96784251 -0.59465749 -2.40711536 0.01467753 0 0 Z " fill="#FE6EC4" transform="translate(200.75,92.8125)"/>
<path d="M0 0 C0.99 0.33 1.98 0.66 3 1 C3 3.64 3 6.28 3 9 C4.32 9 5.64 9 7 9 C6.67 10.65 6.34 12.3 6 14 C5.01 14 4.02 14 3 14 C3 19.61 3 25.22 3 31 C1.68 31.33 0.36 31.66 -1 32 C-2 31 -2 31 -2.09765625 27.18359375 C-2.09098089 25.60153318 -2.07901875 24.01948841 -2.0625 22.4375 C-2.05798828 21.63119141 -2.05347656 20.82488281 -2.04882812 19.99414062 C-2.03700518 17.99606244 -2.01906914 15.99802217 -2 14 C-3.98 14 -5.96 14 -8 14 C-8 12.68 -8 11.36 -8 10 C-6.35 9.67 -4.7 9.34 -3 9 C-2.80083984 8.15115234 -2.80083984 8.15115234 -2.59765625 7.28515625 C-2.42105469 6.55167969 -2.24445313 5.81820312 -2.0625 5.0625 C-1.88847656 4.33160156 -1.71445313 3.60070312 -1.53515625 2.84765625 C-1 1 -1 1 0 0 Z " fill="#FE6EC4" transform="translate(123,93)"/>
<path d="M0 0 C3.71814592 0.21046109 6.31950406 0.57469003 9.5 2.5625 C11.30013715 5.48772287 11.34862938 7.53083914 10.76171875 10.89453125 C9.41062611 14.62908989 6.80068985 17.25926376 4 20 C2.35 19.67 0.7 19.34 -1 19 C-1.02683987 16.02077407 -1.04676037 13.04178705 -1.0625 10.0625 C-1.07087891 9.21236328 -1.07925781 8.36222656 -1.08789062 7.48632812 C-1.09111328 6.67744141 -1.09433594 5.86855469 -1.09765625 5.03515625 C-1.10289307 4.2862915 -1.10812988 3.53742676 -1.11352539 2.76586914 C-1 1 -1 1 0 0 Z " fill="#1B542D" transform="translate(221,212)"/>
<path d="M0 0 C2.0625 0.4375 2.0625 0.4375 4 1 C4.0093457 1.76666992 4.01869141 2.53333984 4.02832031 3.32324219 C4.08202773 6.79948103 4.16567576 10.27437474 4.25 13.75 C4.26417969 14.9565625 4.27835937 16.163125 4.29296875 17.40625 C4.32519531 18.56640625 4.35742188 19.7265625 4.390625 20.921875 C4.4220459 22.52434082 4.4220459 22.52434082 4.45410156 24.15917969 C5.1189465 27.61898991 6.44012129 28.68416392 9 31 C8.75 33.25 8.75 33.25 8 35 C5.1875 34.8125 5.1875 34.8125 2 34 C-1.00543981 30.16933181 -1.36738795 27.2133087 -1.328125 22.421875 C-1.32296875 21.17921875 -1.3178125 19.9365625 -1.3125 18.65625 C-1.291875 17.3671875 -1.27125 16.078125 -1.25 14.75 C-1.24484375 13.44546875 -1.2396875 12.1409375 -1.234375 10.796875 C-1.15401786 1.15401786 -1.15401786 1.15401786 0 0 Z " fill="#FE6EC4" transform="translate(103,90)"/>
<path d="M0 0 C1.98 0.99 1.98 0.99 4 2 C4.33 7.61 4.66 13.22 5 19 C4.34 19 3.68 19 3 19 C2.86722656 18.04738281 2.73445312 17.09476563 2.59765625 16.11328125 C2.42105469 14.85902344 2.24445313 13.60476562 2.0625 12.3125 C1.88847656 11.07113281 1.71445313 9.82976562 1.53515625 8.55078125 C1.10177103 5.67525452 0.60350718 2.84355187 0 0 Z " fill="#2E5839" transform="translate(145,106)"/>
</svg>
